HIERARCHY
ROOT Hips
{
	OFFSET 0.000000 0.000000 0.000000
	CHANNELS 6 Xposition Yposition Zposition Zrotation Yrotation Xrotation 
	JOINT LHipJoint
	{
		OFFSET 0.000000 0.000000 0.000000
		CHANNELS 3 Zrotation Yrotation Xrotation
		JOINT LeftUpLeg
		{
			OFFSET 1.363060 -1.794630 0.839290
			CHANNELS 3 Zrotation Yrotation Xrotation
			JOINT LeftLeg
			{
				OFFSET 2.448110 -6.726130 0.000000
				CHANNELS 3 Zrotation Yrotation Xrotation
				JOINT LeftFoot
				{
					OFFSET 2.562200 -7.039590 0.000000
					CHANNELS 3 Zrotation Yrotation Xrotation
					JOINT LeftToeBase
					{
						OFFSET 0.157640 -0.433110 2.322550
						CHANNELS 3 Zrotation Yrotation Xrotation
						End Site
						{
							OFFSET 0.000000 0.000000 0.000000
						}
					}
				}
			}
		}
	}
	JOINT RHipJoint
	{
		OFFSET 0.000000 0.000000 0.000000
		CHANNELS 3 Zrotation Yrotation Xrotation
		JOINT RightUpLeg
		{
			OFFSET -1.305520 -1.794630 0.839290
			CHANNELS 3 Zrotation Yrotation Xrotation
			JOINT RightLeg
			{
				OFFSET -2.542530 -6.985550 0.000000
				CHANNELS 3 Zrotation Yrotation Xrotation
				JOINT RightFoot
				{
					OFFSET -2.568260 -7.056230 0.000000
					CHANNELS 3 Zrotation Yrotation Xrotation
					JOINT RightToeBase
					{
						OFFSET -0.164730 -0.452590 2.363150
						CHANNELS 3 Zrotation Yrotation Xrotation
						End Site
						{
							OFFSET 0.000000 0.000000 0.000000
						}
					}
				}
			}
		}
	}
	JOINT LowerBack
	{
		OFFSET 0.000000 0.000000 0.000000
		CHANNELS 3 Zrotation Yrotation Xrotation
		JOINT Spine
		{
			OFFSET 0.028270 2.035590 -0.193380
			CHANNELS 3 Zrotation Yrotation Xrotation
			JOINT Spine1
			{
				OFFSET 0.056720 2.048850 -0.042750
				CHANNELS 3 Zrotation Yrotation Xrotation
				JOINT Neck
				{
					OFFSET 0.000000 0.000000 0.000000
					CHANNELS 3 Zrotation Yrotation Xrotation
					JOINT Neck1
					{
						OFFSET -0.054170 1.746240 0.172020
						CHANNELS 3 Zrotation Yrotation Xrotation
						JOINT Head
						{
							OFFSET 0.104070 1.761360 -0.123970
							CHANNELS 3 Zrotation Yrotation Xrotation
							End Site
							{
								OFFSET 0.000000 0.000000 0.000000
							}
						}
					}
				}
				JOINT LeftShoulder
				{
					OFFSET 0.000000 0.000000 0.000000
					CHANNELS 3 Zrotation Yrotation Xrotation
					JOINT LeftArm
					{
						OFFSET 3.362410 1.200890 -0.311210
						CHANNELS 3 Zrotation Yrotation Xrotation
						JOINT LeftForeArm
						{
							OFFSET 4.983000 -0.000000 -0.000000
							CHANNELS 3 Zrotation Yrotation Xrotation
							JOINT LeftHand
							{
								OFFSET 3.483560 -0.000000 -0.000000
								CHANNELS 3 Zrotation Yrotation Xrotation
								JOINT LeftFingerBase
								{
									OFFSET 0.000000 0.000000 0.000000
									CHANNELS 3 Zrotation Yrotation Xrotation
									JOINT LeftHandIndex1
									{
										OFFSET 0.715260 -0.000000 -0.000000
										CHANNELS 3 Zrotation Yrotation Xrotation
										End Site
										{
											OFFSET 0.000000 0.000000 0.000000
										}
									}
								}
								JOINT LThumb
								{
									OFFSET 0.000000 0.000000 0.000000
									CHANNELS 3 Zrotation Yrotation Xrotation
									End Site
									{
										OFFSET 0.000000 0.000000 0.000000
									}
								}
							}
						}
					}
				}
				JOINT RightShoulder
				{
					OFFSET 0.000000 0.000000 0.000000
					CHANNELS 3 Zrotation Yrotation Xrotation
					JOINT RightArm
					{
						OFFSET -3.136600 1.374050 -0.404650
						CHANNELS 3 Zrotation Yrotation Xrotation
						JOINT RightForeArm
						{
							OFFSET -5.241900 -0.000000 -0.000000
							CHANNELS 3 Zrotation Yrotation Xrotation
							JOINT RightHand
							{
								OFFSET -3.444170 -0.000000 -0.000000
								CHANNELS 3 Zrotation Yrotation Xrotation
								JOINT RightFingerBase
								{
									OFFSET 0.000000 0.000000 0.000000
									CHANNELS 3 Zrotation Yrotation Xrotation
									JOINT RightHandIndex1
									{
										OFFSET -0.622530 -0.000000 -0.000000
										CHANNELS 3 Zrotation Yrotation Xrotation
										End Site
										{
											OFFSET 0.000000 0.000000 0.000000
										}
									}
								}
								JOINT RThumb
								{
									OFFSET 0.000000 0.000000 0.000000
									CHANNELS 3 Zrotation Yrotation Xrotation
									End Site
									{
										OFFSET 0.000000 0.000000 0.000000
									}
								}
							}
						}
					}
				}
			}
		}
	}
}
MOTION
Frames: 5
Frame Time: 0.008333
1.374817 17.132095 0.802479 -1.806304 -83.020814 12.405811 -9.536957 1.135743 4.940030 -11.210990 -14.715069 -19.686316 -1.636102 0.039737 20.460473 1.940871 9.230337 -11.802907 -0.679300 -0.000000 -29.083200 10.112911 -0.979032 0.086742 4.360199 -3.671625 -24.480870 -0.245020 -2.606837 43.359168 -2.908922 -15.625084 1.017971 -2.974700 -0.000000 -72.320400 -4.665640 -1.911388 -5.259549 -1.718405 -1.735651 -3.679729 -6.848737 -1.821052 1.210727 11.793797 -12.446216 -10.040039 -2.666350 -0.182967 -0.613925 0.000000 0.000000 0.000000 0.069365 10.121106 1.395820 -63.218769 8.084331 13.290597 -3.505605 -30.303444 -0.001978 0.559405 1.681701 0.010651 -0.115422 -0.031418 -0.000000 0.000000 0.000000 0.000000 0.000000 0.000000 0.000000 14.943198 -8.520091 1.041473 74.345201 -4.439939 1.109296 3.395988 23.751795 0.018857 -1.150627 9.878095 -0.108992 0.110658 -0.086918 0.000000 0.000000 0.000000 0.000000 0.000000 0.000000 0.000000 
1.384784 17.142670 0.828081 -3.738847 -82.442265 13.953051 -9.615500 1.109663 4.850457 -10.996127 -14.496545 -19.109077 -1.638758 0.035598 20.179200 1.837400 8.737818 -11.594849 -0.628200 0.000000 -29.397000 10.188472 -0.904779 -0.048353 4.529524 -3.986724 -26.172983 -0.518219 -2.859952 46.940029 -2.897101 -15.929725 3.972762 -3.708000 0.000000 -73.116300 -4.496722 -1.975594 -5.012037 -1.686243 -1.808887 -3.635579 -6.855803 -1.888248 1.182877 11.765695 -12.427449 -9.932507 -2.668726 -0.184146 -0.585791 0.000000 0.000000 0.000000 0.124124 9.739455 1.405412 -63.081891 7.579018 13.255083 -3.523931 -29.804168 -0.002083 0.632021 1.725540 0.012054 -0.116707 -0.029383 -0.000000 0.000000 0.000000 0.000000 0.000000 0.000000 0.000000 14.886583 -8.606089 1.041232 74.415094 -4.723328 0.884006 3.411325 23.395842 0.018764 -1.042367 9.827508 -0.099013 0.109700 -0.084284 0.000000 0.000000 0.000000 0.000000 0.000000 0.000000 0.000000 
1.396157 17.154998 0.853490 -5.700024 -81.839692 15.499010 -9.703993 1.088047 4.751299 -10.732088 -14.209980 -18.498505 -1.640158 0.031031 19.852904 1.724167 8.189619 -11.352507 -0.571500 0.000001 -29.795900 10.254713 -0.809536 -0.192508 4.742203 -4.370822 -27.918880 -0.774116 -3.087805 50.516428 -2.887535 -16.086203 7.024937 -4.413700 0.000000 -73.352500 -4.289821 -2.055314 -4.746637 -1.645938 -1.900449 -3.585577 -6.862783 -1.972991 1.163303 11.746171 -12.424191 -9.822761 -2.670864 -0.185291 -0.557065 0.000000 0.000000 0.000000 0.174173 9.377208 1.412290 -62.947390 7.024111 13.246248 -3.540552 -29.278552 -0.002160 0.726569 1.756140 0.013658 -0.118061 -0.027085 -0.000000 0.000000 0.000000 0.000000 0.000000 0.000000 0.000000 14.842557 -8.722547 1.033806 74.470313 -4.980222 0.675246 3.428169 23.029880 0.018622 -0.913487 9.746166 -0.086935 0.108653 -0.081402 0.000000 0.000000 0.000000 0.000000 0.000000 0.000000 0.000000 
1.408681 17.169064 0.878515 -7.671201 -81.222640 17.032170 -9.801378 1.071645 4.650059 -10.415334 -13.872651 -17.869557 -1.638127 0.026069 19.486757 1.605725 7.608131 -11.076720 -0.510800 0.000000 -30.277900 10.308525 -0.696096 -0.344547 4.998856 -4.818102 -29.729052 -1.004023 -3.296757 54.083405 -2.876861 -16.055804 9.976964 -5.015200 0.000000 -72.810400 -4.046047 -2.148022 -4.475244 -1.597896 -2.007755 -3.535218 -6.870594 -2.073379 1.139649 11.728410 -12.425395 -9.698275 -2.674284 -0.186759 -0.523993 0.000000 0.000000 0.000000 0.210156 8.968226 1.415736 -62.810913 6.522060 13.194897 -3.553843 -28.791833 -0.002228 0.823698 1.780679 0.015460 -0.119234 -0.024750 -0.000000 0.000000 0.000000 0.000000 0.000000 0.000000 0.000000 14.801711 -8.855647 1.025179 74.520849 -5.230588 0.449127 3.447089 22.658980 0.018414 -0.760396 9.626299 -0.072759 0.107505 -0.078340 -0.000000 0.000000 0.000000 0.000000 0.000000 0.000000 0.000000 
1.422189 17.184954 0.903211 -9.652803 -80.606484 18.559843 -9.907088 1.060406 4.550757 -10.044938 -13.496849 -17.230185 -1.630645 0.020651 19.081679 1.486484 7.017271 -10.767028 -0.448000 0.000000 -30.844100 10.347837 -0.568377 -0.503880 5.299355 -5.314015 -31.611894 -1.207762 -3.495355 57.631175 -2.861325 -15.829481 12.675982 -5.460000 0.000000 -71.696900 -3.765080 -2.250543 -4.204374 -1.541851 -2.127564 -3.484322 -6.878185 -2.186081 1.118535 11.709917 -12.435812 -9.566114 -2.677585 -0.188334 -0.488566 0.000000 0.000000 0.000000 0.222436 8.553750 1.415407 -62.658271 6.030558 13.155956 -3.564069 -28.327247 -0.002281 0.924740 1.795931 0.017164 -0.120292 -0.022402 -0.000000 0.000000 0.000000 0.000000 0.000000 0.000000 0.000000 14.759155 -9.008184 1.012408 74.564611 -5.458103 0.220896 3.467973 22.274041 0.018157 -0.595295 9.477489 -0.057783 0.106357 -0.075121 -0.000000 0.000000 0.000000 0.000000 0.000000 0.000000 0.000000 
